<svg width="568" height="500" viewBox="0 0 568 500" fill="none" xmlns="http://www.w3.org/2000/svg">
<path d="M336.308 114.457C316.57 128.83 338.3 184.421 366.515 193.191C394.698 201.992 428.954 207.405 447.363 209.431C465.773 211.457 476.685 171.315 451.95 153.175C427.183 135.067 361.834 95.8426 336.308 114.457Z" fill="url(#paint0_linear_10_11)"/>
<path d="M499.27 483.114C493.102 486.28 486.459 489.161 479.342 491.662C478.551 491.947 477.729 492.231 476.907 492.485C476.084 492.77 475.293 493.023 474.471 493.276C473.838 493.498 473.174 493.688 472.51 493.878C471.751 494.099 470.992 494.321 470.232 494.574C469.6 494.764 468.967 494.922 468.335 495.112C467.544 495.334 466.753 495.524 465.962 495.745C464.223 496.22 462.42 496.664 460.648 497.107C455.714 498.278 450.78 499.07 445.845 499.513C444.169 499.671 442.492 499.766 440.816 499.829C438.76 499.924 436.704 499.924 434.648 499.924C433.636 499.893 432.623 499.893 431.611 499.829C431.074 499.829 430.567 499.798 430.03 499.766C429.618 499.734 429.176 499.703 428.733 499.703C426.107 499.544 423.482 499.291 420.888 498.975C420.098 498.88 419.307 498.785 418.548 498.658C417.789 498.563 417.029 498.436 416.27 498.341C414.657 498.088 413.044 497.803 411.462 497.487C411.02 497.392 410.577 497.328 410.166 497.233C408.805 496.98 407.445 496.695 406.085 496.379C405.642 496.284 405.2 496.189 404.757 496.094C404.725 496.094 404.693 496.094 404.662 496.062C404.156 495.967 403.681 495.84 403.207 495.714C403.08 495.682 402.985 495.65 402.859 495.619C402.226 495.461 401.594 495.302 400.961 495.144C400.36 494.986 399.759 494.827 399.158 494.669C398.272 494.447 397.387 494.194 396.501 493.941C394.35 493.339 392.168 492.706 390.048 492.01C389.384 491.788 388.688 491.598 388.024 491.377C387.36 491.155 386.664 490.933 386 490.712C385.399 490.522 384.829 490.332 384.228 490.11C383.469 489.857 382.742 489.604 381.983 489.351C381.318 489.129 380.654 488.876 379.99 488.654C379.326 488.432 378.661 488.179 377.997 487.926C377.523 487.768 377.048 487.578 376.574 487.388C375.72 487.071 374.897 486.755 374.043 486.438C354.337 478.967 335.643 469.944 318.563 463.739C316.507 462.98 314.451 462.283 312.426 461.618C312.11 461.523 311.794 461.428 311.478 461.333C311.288 461.27 311.098 461.207 310.908 461.175C310.465 461.048 309.991 460.922 309.548 460.827C309.263 460.763 309.01 460.7 308.726 460.637C308.662 460.605 308.568 460.605 308.504 460.574C282.662 454.78 246.887 470.482 205.673 474.851C179.451 477.669 151.015 475.864 121.535 461.08C-131.417 334.037 54.1927 12.0441 281.049 131.236C311.224 147.097 330.108 180.654 342.95 207.373C343.804 209.178 344.658 210.919 345.449 212.629C354.4 231.655 379.262 238.24 421.932 235.201C444.295 233.618 464.602 236.879 482.442 243.812C580.244 281.77 605.074 428.821 499.27 483.114Z" fill="url(#paint1_linear_10_11)"/>
<path d="M445.402 155.043C439.361 162.704 431.453 175.051 431.453 175.051C431.453 175.051 342.444 309.502 329.57 308.964C326.47 308.837 320.872 304.816 314.134 298.801C311.699 296.617 309.137 294.211 306.48 291.583C296.896 282.181 286.204 270.531 277.474 260.654C267.226 249.098 259.698 240.044 259.698 240.044L248.943 178.533C248.943 178.533 275.513 177.172 297.244 190.88C305.91 196.356 316.127 205.411 325.268 214.306C330.424 219.34 335.264 224.342 339.249 228.616C340.356 229.787 341.4 230.8 342.412 231.687C347.505 236.182 351.174 237.227 351.174 237.227L391.851 146.97C391.851 146.97 390.238 142.665 388.91 137.821C388.245 135.415 387.644 132.914 387.328 130.698C386.759 126.614 386.506 122.435 387.17 119.586C387.518 118.13 388.119 117.053 389.005 116.483C396.374 111.925 416.871 104.485 417.978 110.31C418.801 114.679 417.093 118.383 414.436 121.327C409.47 126.931 401.309 129.906 401.309 129.906L402.195 130.001L417.947 131.521C417.947 131.521 420.73 127.152 424.842 123.417C429.017 119.618 434.553 116.452 439.962 119.174C450.779 124.556 452.804 145.672 445.402 155.043Z" fill="#F69B88"/>
<path opacity="0.6" d="M342.444 231.718C338.047 241.247 320.271 280.123 316.032 293.546C315.495 295.256 314.862 297.029 314.134 298.833C311.699 296.649 309.137 294.243 306.48 291.615C296.896 282.213 286.204 270.563 277.474 260.685C287.723 246.978 305.657 226.463 315.242 220.195C318.658 217.947 322.105 216.016 325.269 214.338C330.424 219.372 335.264 224.374 339.249 228.648C340.356 229.819 341.432 230.832 342.444 231.718Z" fill="#F69B88"/>
<path opacity="0.6" d="M443.789 154.631C443.536 156.246 431.453 166.44 431.453 166.44C431.453 166.44 427.436 166.978 422.597 164.287C417.757 161.596 417.757 148.711 417.757 148.711C417.757 148.711 416.966 150.864 415.068 151.94C413.202 153.017 410.514 152.194 410.514 152.194L408.363 155.676L403.27 160.235L400.392 160.361L401.372 152.732L408.616 138.486L391.693 138.232C391.693 138.232 393.053 137.948 390.618 138.232C389.859 138.327 389.289 138.106 388.878 137.789C388.214 135.383 387.613 132.882 387.297 130.666C386.727 126.582 386.474 122.404 387.138 119.554L398.905 117.528L414.436 121.295L416.618 121.834L424.842 123.385L437.811 125.854C437.906 125.886 444.074 153.017 443.789 154.631Z" fill="#F69B88"/>
<path d="M339.281 228.616C335.454 234.188 327.862 245.521 320.904 257.931C314.419 269.486 308.441 281.959 306.48 291.583C306.069 291.204 305.689 290.824 305.278 290.412C284.655 270.024 259.666 240.044 259.666 240.044L255.839 213.515L254.447 203.986L250.778 178.533C250.778 178.533 275.482 177.203 297.212 190.88C310.845 199.459 328.147 216.807 339.281 228.616Z" fill="#9AD2AD"/>
<path d="M398.782 146.772L396.964 152.439L404.825 154.964L406.642 149.297L398.782 146.772Z" fill="#F9F5B7"/>
<path d="M398.779 153.207L402.891 154.536L400.392 160.393L397.577 159.475L398.779 153.207Z" fill="#F9F5B7"/>
<path d="M397.925 146.432C398.083 145.925 398.62 145.672 399.095 145.83L406.908 148.331C407.414 148.49 407.667 149.028 407.509 149.503C407.351 150.009 406.813 150.263 406.338 150.104L398.526 147.603C398.051 147.477 397.766 146.938 397.925 146.432Z" fill="#FBD55A"/>
<path d="M393.654 138.517L402.385 111.323C402.764 110.12 404.093 109.455 405.295 109.835L422.85 115.471C424.052 115.85 424.716 117.148 424.336 118.383L415.638 145.577C415.258 146.78 413.835 149.028 412.064 149.186C407.224 149.534 397.577 146.242 394.382 143.899C393.338 143.171 393.275 139.752 393.654 138.517Z" fill="#F9F5B7"/>
<path d="M396.122 152.13C396.28 151.624 396.817 151.371 397.292 151.529L405.105 154.03C405.611 154.188 405.864 154.726 405.706 155.201C405.547 155.708 405.01 155.961 404.535 155.803L396.722 153.302C396.216 153.143 395.963 152.605 396.122 152.13Z" fill="#FBD55A"/>
<path d="M400.338 117.756L394.427 136.172L416.382 143.229L422.292 124.813L400.338 117.756Z" fill="#FBD55A"/>
<path d="M220.349 204.999L209.089 243.274L181.317 250.935L151.173 197.053L151.109 196.926C151.109 196.926 155.538 184.833 147.092 162.672C145.764 159.19 144.846 156.056 144.245 153.302C140.988 138.517 146.713 133.674 146.713 133.674L173.093 137.22L203.87 141.335C203.87 141.335 201.497 155.708 202.383 165.553C202.636 168.561 203.237 171.157 204.281 172.771C210.733 182.839 219.97 178.406 219.97 178.406L220.349 204.999Z" fill="#F69B88"/>
<path opacity="0.6" d="M342.76 231.592L345.164 236.815C345.164 236.815 342.349 254.132 350.383 261.793C358.449 269.455 364.079 263.408 364.079 261.793C364.079 260.179 366.895 240.836 366.895 239.633C366.895 238.43 367.685 235.201 366.895 233.998C366.104 232.795 342.76 231.592 342.76 231.592Z" fill="#F69B88"/>
<path opacity="0.5" d="M177.142 223.804C177.142 223.804 195.646 233.554 200.517 230.959C205.388 228.363 211.872 218.929 211.872 218.929C211.872 218.929 254.701 241.975 214.466 244.255C174.232 246.534 230.693 255.62 202.446 251.061C174.2 246.503 174.2 246.503 174.2 246.503L177.142 223.804Z" fill="#F69B88"/>
<path opacity="0.5" d="M202.351 165.553L202.225 165.648C202.225 165.648 189.889 176.665 182.107 177.742C174.326 178.818 157.404 174.512 157.404 184.706C157.404 194.932 160.092 195.47 160.092 195.47C160.092 195.47 155.411 196.99 151.173 197.053L151.109 196.926C151.109 196.926 155.538 184.833 147.092 162.672C145.764 159.19 144.846 156.056 144.245 153.302C144.941 152.858 145.669 152.415 146.428 151.94C156.392 145.767 165.311 140.923 173.093 137.219L203.869 141.335C203.838 141.335 201.465 155.708 202.351 165.553Z" fill="#F69B88"/>
<path d="M501.515 475.041C500.819 478.017 500.06 480.708 499.269 483.114C493.101 486.28 486.459 489.161 479.342 491.661C478.551 491.946 477.729 492.231 476.906 492.485C476.084 492.77 475.293 493.023 474.471 493.276C473.838 493.498 473.174 493.688 472.51 493.878C471.751 494.099 470.991 494.321 470.232 494.574C469.6 494.764 468.967 494.922 468.334 495.112C467.544 495.334 466.753 495.524 465.962 495.745C464.222 496.22 462.419 496.664 460.648 497.107C455.714 498.278 450.779 499.069 445.845 499.513C444.169 499.671 442.492 499.766 440.816 499.829C438.76 499.924 436.704 499.956 434.648 499.924C433.635 499.893 432.623 499.893 431.611 499.829C431.073 499.829 430.567 499.798 430.03 499.766C429.618 499.734 429.176 499.703 428.733 499.703C426.107 499.544 423.482 499.291 420.888 498.975C420.097 498.88 419.307 498.785 418.548 498.658C417.788 498.563 417.029 498.436 416.27 498.341C414.657 498.088 413.044 497.803 411.462 497.487C411.019 497.392 410.577 497.328 410.165 497.233C408.805 496.98 407.445 496.695 406.085 496.379C405.642 496.284 405.199 496.189 404.757 496.094C404.725 496.094 404.693 496.094 404.662 496.062C404.156 495.967 403.681 495.84 403.207 495.714C403.08 495.682 402.985 495.65 402.859 495.619C402.226 495.46 401.593 495.302 400.961 495.144C400.36 494.986 399.759 494.827 399.158 494.669C398.272 494.447 397.387 494.194 396.501 493.941C394.35 493.339 392.167 492.706 390.048 492.01L378.092 482.987L374.518 482.291C374.518 482.291 358.86 444.333 351.648 417.075C349.15 407.546 347.347 399.284 347.094 394.25C347.094 393.997 347.062 393.775 347.062 393.554C347.062 393.395 347.062 393.269 347.062 393.142C347.062 392.477 347.062 391.781 347.094 391.053C347.283 385.038 348.169 376.11 349.371 366.676C349.371 366.549 349.403 366.423 349.434 366.328C349.498 365.948 349.529 365.6 349.561 365.22C349.782 363.32 350.035 361.421 350.288 359.521C350.446 358.445 350.573 357.337 350.731 356.261C350.889 354.994 351.079 353.76 351.237 352.525C352.06 346.605 352.882 340.938 353.641 336.126C353.799 335.145 353.926 334.195 354.084 333.277C355.159 326.186 355.95 321.469 355.95 321.469C355.95 321.469 356.014 320.234 356.108 318.239C356.203 316.245 356.33 313.491 356.425 310.547C356.583 306.241 356.741 301.492 356.741 298.073C356.741 294.718 360.347 286.803 364.301 278.762C365.787 275.754 367.306 272.715 368.697 269.898C371.734 263.788 374.233 258.628 374.454 256.728C374.802 256.38 361.169 256.38 361.169 256.38L361.96 242.672L346.651 226.147L338.933 221.999C339.123 219.34 339.534 216.712 340.198 214.212C340.831 211.837 341.716 209.558 342.95 207.405C345.291 203.226 348.897 199.522 354.305 196.546C361.707 192.463 367.59 190.278 371.766 189.075C376.7 187.682 379.262 187.682 379.262 187.682C379.262 187.682 384.102 166.725 401.815 166.725C415.827 166.725 439.392 168.751 451.823 179.546C455.113 182.395 457.643 185.878 458.972 190.088C465.424 210.223 463.811 218.295 463.811 218.295C463.811 218.295 463.969 218.359 464.286 218.485C464.507 218.58 464.76 218.707 465.076 218.834C466.468 219.467 468.872 220.638 471.434 222.443C476.337 225.893 481.872 231.655 482.315 240.044C482.379 241.216 482.41 242.482 482.442 243.843C482.79 259.736 481.018 284.872 484.719 290.824C488.736 297.282 501.642 301.302 496.802 319.031C494.493 327.452 479.88 333.53 479.88 333.53C479.88 333.53 479.88 333.562 479.911 333.657C480.069 334.322 480.797 337.456 481.714 341.35C482.726 345.655 483.928 350.879 484.719 354.488C486.174 361.009 486.965 371.425 487.091 373.451C487.123 373.672 487.123 373.831 487.123 373.831C487.123 373.831 487.313 374.021 487.629 374.432C490.318 377.693 503.128 394.44 504.836 421.128C506.544 444.871 504.488 462.505 501.515 475.041Z" fill="url(#paint2_linear_10_11)"/>
<path opacity="0.3" d="M484.878 290.824C481.177 284.872 482.916 259.704 482.6 243.843C482.569 242.514 482.537 241.247 482.474 240.044C482.031 231.623 476.495 225.893 471.593 222.443L461.091 224.912C462.483 222.316 463.59 220.132 464.412 218.454C464.128 218.327 463.938 218.264 463.938 218.264C463.938 218.264 465.551 210.191 459.098 190.056C457.738 185.846 455.24 182.364 451.95 179.514C454.702 186.637 459.193 201.865 452.393 212.629C443.251 227.128 427.151 234.061 420.73 232.985C414.278 231.908 405.168 226.052 411.051 231.433C416.966 236.815 422.312 241.659 415.353 244.856C408.363 248.085 406.212 248.624 406.75 251.853C407.287 255.082 406.75 265.276 413.74 265.814C419.37 266.257 434.173 259.989 445.023 249.035C443.22 256.317 441.385 264.579 440.183 272.272C437.495 289.462 436.546 337.139 455.081 343.186C463.843 346.035 474.028 343.091 481.873 341.318C480.987 337.456 480.228 334.29 480.07 333.625C480.038 333.53 480.038 333.499 480.038 333.499C480.038 333.499 494.651 327.42 496.961 318.999C501.768 301.302 488.895 297.282 484.878 290.824Z" fill="url(#paint3_linear_10_11)"/>
<path opacity="0.5" d="M320.872 257.931C314.387 269.486 308.409 281.959 306.448 291.583C306.037 291.204 305.657 290.824 305.246 290.412C284.623 270.024 259.635 240.044 259.635 240.044L255.807 213.515L254.416 203.986L267.005 181.889C267.005 181.889 292.309 209.178 300.122 229.977C307.903 250.776 305.309 261.16 315.052 259.862C317.329 259.546 319.227 258.849 320.872 257.931Z" fill="#9AD2AD"/>
<path d="M422.85 259.387C406.212 265.307 364.08 264.231 354.685 252.391C351.933 248.94 350.035 244.286 348.928 240.962C348.739 240.393 348.58 239.886 348.422 239.411C347.948 237.828 347.695 236.784 347.695 236.784C347.695 236.784 347.695 236.784 347.663 236.752C347.631 236.72 347.632 236.72 347.568 236.657C347.442 236.499 347.094 236.087 346.303 235.137C346.113 234.947 345.923 234.694 345.702 234.441C345.702 234.409 345.67 234.409 345.67 234.378C344.658 233.27 338.617 229.344 338.965 222.569C339.629 212.344 342.919 202.751 354.4 196.451C361.802 192.367 367.527 189.138 371.861 188.98C379.294 188.695 396.469 194.742 398.146 202.34C400.297 211.995 395.204 222.221 413.17 231.085C425.348 237.1 433.224 225.767 437.526 232.161C441.986 238.873 439.519 253.499 422.85 259.387Z" fill="url(#paint4_linear_10_11)"/>
<path opacity="0.6" d="M381.381 242.482C381.381 242.482 384.608 248.529 382.583 253.372C380.559 258.216 380.559 258.216 380.559 258.216C380.559 258.216 387.802 259.831 392.642 257.804C397.481 255.778 407.951 250.966 407.951 250.966C407.951 250.966 403.934 258.628 403.112 259.831C402.321 261.034 387.802 267.492 385.399 267.492C382.995 267.492 382.583 269.106 377.333 268.283C372.114 267.492 366.452 266.669 366.452 265.466C366.452 264.263 367.242 253.372 368.856 252.169C370.532 250.935 381.381 242.482 381.381 242.482Z" fill="url(#paint5_linear_10_11)"/>
<path opacity="0.6" d="M385.81 250.396C385.81 250.396 374.549 253.341 369.71 248.117C366.041 244.128 361.517 233.871 361.517 233.871C361.517 233.871 359.493 238.05 352.787 239.664C351.87 239.886 349.877 239.696 348.422 239.474C347.948 237.892 347.695 236.847 347.695 236.847C347.695 236.847 347.695 236.847 347.663 236.815C347.631 236.752 347.41 236.499 346.303 235.201L355.318 233.459L363.51 226.495L366.863 235.771L371.291 241.532L382.172 248.37L385.81 250.396Z" fill="url(#paint6_linear_10_11)"/>
<path d="M220.476 65.9889C207.95 17.1091 172.397 3.52784 138.362 12.2654C105.466 20.7181 83.7361 47.0892 93.6365 92.9931C86.0135 96.1589 80.3516 104.865 84.1473 116.04C87.6583 126.329 100.374 132.439 108.914 131.806C126.438 160.678 153.767 176.95 179.071 170.46C213.106 161.691 233.002 114.837 220.476 65.9889Z" fill="#FABA94"/>
<path d="M318.689 463.803C317.803 463.486 316.949 463.169 316.064 462.853C314.893 462.441 313.723 462.061 312.553 461.65C312.236 461.555 311.92 461.46 311.604 461.365C311.414 461.302 311.224 461.27 311.034 461.207C310.592 461.08 310.117 460.953 309.674 460.827C309.39 460.763 309.137 460.7 308.852 460.637C308.789 460.605 308.694 460.605 308.63 460.573C304.455 459.624 299.995 459.181 295.282 459.149C270.326 458.959 238.189 470.008 205.799 474.851C179.577 477.637 151.141 475.864 121.661 461.08C123.369 453.64 125.583 444.206 128.177 433.474C132.732 414.669 124.792 391.844 116.379 373.261C112.868 365.536 109.293 358.572 106.446 352.905C103.347 346.668 98.349 332.739 93.0034 316.688C81.7745 282.846 68.9956 239.664 68.9956 239.664C68.9956 239.664 85.3171 225.102 100.974 213.325C101.987 212.565 102.999 211.806 104.011 211.077C110.748 206.139 120.079 201.928 128.715 198.699C141.209 194.014 152.311 191.354 152.311 191.354C152.311 191.354 153.829 195.787 156.803 201.422C159.839 207.247 164.426 214.338 170.372 218.992C170.436 219.055 170.499 219.087 170.562 219.15C182.36 228.299 202.762 240.646 202.762 240.646C202.762 240.646 210.259 221.303 214.023 208.925C215.13 205.284 215.067 201.042 214.402 196.831C213.675 191.988 212.188 187.239 210.828 183.598C209.373 179.673 208.045 177.045 208.045 177.045C208.045 177.045 210.828 177.108 214.972 177.203C222.089 177.362 233.191 177.615 240.846 177.71C242.933 177.742 244.8 177.742 246.223 177.742C255.87 177.742 263.936 178.818 270.389 185.276C275.039 189.898 287.723 212.47 294.46 237.069C294.65 237.765 294.839 238.461 295.029 239.158C297.338 248.117 298.857 257.266 298.857 265.877C298.857 268.568 298.73 272.019 298.509 276.071C297.686 290.729 295.599 312.763 293.796 330.396C292.182 346.288 290.791 358.572 290.791 358.572C290.569 359.616 290.411 360.756 290.316 361.927C288.197 384.531 304.076 428.219 315.399 455.951C316.57 458.706 317.645 461.365 318.689 463.803Z" fill="url(#paint7_linear_10_11)"/>
<path opacity="0.5" d="M143.518 226.495C130.992 229.312 117.264 231.56 102.778 212.122C104.169 211.109 112.457 205.284 114.861 203.796C116.252 202.941 120.016 179.293 123.274 156.974C131.056 165.047 139.754 171.157 148.832 174.797C149.654 176.982 150.888 180.528 152.09 185.118C154.241 193.191 166.134 199.554 169.993 205.949C175.402 214.813 160.156 222.727 143.518 226.495Z" fill="url(#paint8_linear_10_11)"/>
<path opacity="0.5" d="M240.878 177.71C238.569 181.794 235.754 185.624 234.172 187.967C229.08 195.502 208.804 198.193 207.602 198.193C203.585 198.193 205.704 191.481 205.704 191.481L210.829 183.63L215.004 177.235C222.152 177.362 233.223 177.583 240.878 177.71Z" fill="url(#paint9_linear_10_11)"/>
<path d="M388.72 248.972C388.72 248.972 380.907 250.808 371.07 241.975C361.233 233.143 365.123 218.897 365.123 218.897" stroke="#3B2314" stroke-width="7.637" stroke-miterlimit="10" stroke-linecap="round" stroke-linejoin="round"/>
<path opacity="0.3" d="M316.064 462.885L315.4 455.92C304.076 428.187 288.197 384.5 290.317 361.896C290.38 361.104 290.506 360.313 290.601 359.585C290.665 359.236 290.696 358.888 290.791 358.54C290.791 358.54 291.614 351.322 292.721 340.812C293.069 337.614 293.416 334.068 293.796 330.364C295.599 312.763 297.687 290.729 298.509 276.039L295.03 239.158L294.682 235.581C294.682 235.581 294.618 236.119 294.46 237.069C292.942 247.041 297.718 287.246 279.752 317.416C276.779 322.418 266.341 327.294 260.9 336.126C223.038 342.743 176.541 350.625 175.908 349.676C174.833 348.061 127.608 313.681 125.457 313.681C124.287 313.681 107.87 315.105 92.9722 316.688C98.3178 332.739 103.284 346.7 106.415 352.905C109.262 358.572 112.836 365.568 116.347 373.261C131.72 383.455 176.604 406.977 214.593 401.247C221.773 400.17 228.384 398.524 234.457 396.529C242.206 398.809 250.462 402.576 257.705 410.966C272.382 427.966 274.185 449.905 295.251 459.212C300.723 461.618 307.492 463.201 316.127 463.581L316.064 462.885Z" fill="url(#paint10_linear_10_11)"/>
<path d="M479.342 491.662C477.729 492.231 476.116 492.77 474.471 493.308C473.87 493.498 473.269 493.688 472.668 493.878C471.245 494.321 469.821 494.732 468.366 495.144C467.575 495.365 466.785 495.587 465.994 495.809C464.254 496.284 462.451 496.727 460.68 497.17C455.745 498.341 450.811 499.133 445.877 499.576C440.626 500.051 435.375 500.114 430.156 499.829C429.713 499.798 429.239 499.766 428.796 499.766C427.974 499.703 427.151 499.639 426.329 499.576C425.791 499.513 425.253 499.481 424.747 499.418C424.146 499.354 423.514 499.291 422.913 499.228C422.248 499.164 421.616 499.07 420.983 499.006C420.192 498.911 419.402 498.816 418.643 498.69C417.883 498.595 417.124 498.468 416.365 498.373C413.771 497.961 411.146 497.487 408.552 496.948C407.762 496.79 406.971 496.6 406.18 496.41C405.737 496.315 405.294 496.22 404.852 496.125C404.219 495.967 403.586 495.84 402.954 495.682C402.321 495.524 401.688 495.366 401.056 495.207C400.36 495.017 399.664 494.859 398.968 494.669C398.177 494.447 397.387 494.226 396.596 494.004C394.445 493.403 392.262 492.77 390.143 492.073L373.853 482.829L373.347 481.309C373.347 481.309 358.955 444.396 351.743 417.139L360.062 402.07C360.062 399.664 350.415 375.477 360.062 371.456C369.71 367.436 367.306 360.186 372.145 352.905C376.985 345.655 396.311 339.197 410.798 342.426C425.285 345.655 444.611 354.519 449.451 361.769C454.29 369.019 463.147 385.956 460.711 395.611C458.308 405.267 463.938 416.569 469.568 431.891C475.198 447.214 479.215 470.577 479.215 485.077C479.215 487.166 479.279 489.382 479.342 491.662Z" fill="url(#paint11_linear_10_11)"/>
<path opacity="0.2" d="M425.538 346.447C423.387 356.672 406.75 353.443 403.523 359.331C400.297 365.251 413.171 364.175 415.859 364.713C418.548 365.251 415.322 373.831 403.523 377.06C392.895 379.972 365.345 369.81 351.333 352.525C352.155 346.605 352.977 340.938 353.736 336.126C353.895 335.145 354.021 334.195 354.179 333.277C355.255 326.186 356.046 321.469 356.046 321.469C356.046 321.469 356.109 320.234 356.204 318.239C356.299 316.245 356.425 313.491 356.52 310.547C356.678 306.241 356.836 301.492 356.836 298.073C356.836 294.718 360.442 286.803 364.396 278.762C365.883 275.754 367.401 272.715 368.793 269.898L388.499 266.922L413.202 298.073C413.202 298.073 386.886 330.839 400.329 336.759C413.74 342.679 427.689 336.221 425.538 346.447Z" fill="url(#paint12_linear_10_11)"/>
<path opacity="0.6" d="M403.144 306.558C384.292 312.288 365.503 310.42 356.52 310.547C356.678 306.241 356.836 301.492 356.836 298.073C356.836 294.718 360.442 286.803 364.396 278.762L428.891 271.101C428.923 271.101 429.713 298.485 403.144 306.558Z" fill="url(#paint13_linear_10_11)"/>
<path opacity="0.5" d="M434.363 499.956C429.872 499.893 425.412 499.544 420.983 499.006C419.402 498.816 417.852 498.595 416.27 498.341C413.835 474.091 418.579 405.52 418.579 405.52C418.579 405.52 433.731 455.223 433.351 463.264C433.003 469.691 433.952 488.053 434.363 499.956Z" fill="url(#paint14_linear_10_11)"/>
<path opacity="0.5" d="M401.119 494.732C401.087 494.891 401.087 495.017 401.056 495.176C399.569 494.796 398.082 494.416 396.596 493.973C394.445 493.371 392.262 492.738 390.143 492.041C388.214 491.44 386.284 490.807 384.355 490.142L382.615 439.901L387.455 407.135C387.423 407.135 404.345 464.911 401.119 494.732Z" fill="url(#paint15_linear_10_11)"/>
<path d="M222.627 72.4473C222.627 72.4473 217.249 70.2946 207.602 63.3298C197.955 56.3334 174.864 32.1784 174.864 32.1784C174.864 32.1784 164.679 73.0172 142.664 93.4365C132.099 103.25 123.527 110.437 117.423 115.28C116.79 112.305 115.841 109.139 114.734 105.91C110.749 94.228 103.347 89.8592 95.2179 92.6451C88.7019 94.8611 83.3247 101.066 83.4829 109.455L83.0717 109.044C83.0717 109.044 75.9231 92.6134 76.619 77.3543C78.2322 42.4356 98.7289 16.856 132.447 3.74962C161.421 -7.5206 178.091 10.2078 178.091 10.2078C178.091 10.2078 204.945 6.72546 216.743 26.3217C225.031 40.0296 222.627 72.4473 222.627 72.4473Z" fill="#022D32"/>
<path d="M143.708 219.625C127.07 223.392 108.282 226.083 88.4174 178.248C68.5533 130.445 77.1568 72.9537 77.1568 72.9537L92.9406 93.5314C85.9502 97.1087 81.0791 105.466 84.685 116.009C88.2276 126.297 100.912 132.407 109.452 131.774C119.953 149.091 133.997 161.881 149.022 167.959C149.844 170.144 151.078 173.689 152.28 178.28C154.431 186.352 163.003 200.314 169.455 204.081C175.94 207.817 160.377 215.889 143.708 219.625Z" fill="#022D32"/>
<path opacity="0.5" d="M76.9669 79.8236L78.7066 82.0713C78.0424 82.1346 77.3465 82.2296 76.6506 82.2929C76.8404 80.6784 76.9669 79.8236 76.9669 79.8236Z" fill="url(#paint16_linear_10_11)"/>
<path d="M241.953 157.037C240.34 179.609 229.997 186.986 222.5 189.677C214.972 192.367 203.711 197.749 205.862 190.215C208.013 182.68 198.872 161.216 198.872 161.216L198.998 160.393C219.748 141.746 229.554 105.087 219.811 67.192C218.262 61.177 216.395 55.7002 214.181 50.7299L220.001 36.5155C220.001 36.5472 243.566 134.497 241.953 157.037Z" fill="#022D32"/>
<path d="M366.072 219.182C365.977 219.688 363.542 231.307 353.799 235.137C351.68 235.96 349.592 236.435 347.6 236.72C347.473 236.562 347.125 236.15 346.335 235.201C346.145 235.011 345.955 234.757 345.734 234.504C345.734 234.473 345.702 234.473 345.702 234.441C347.948 234.283 350.415 233.839 352.914 232.858C361.454 229.502 363.7 218.802 363.7 218.675C363.826 218.01 364.459 217.599 365.123 217.726C365.787 217.884 366.199 218.549 366.072 219.182Z" fill="#3B2314"/>
<path opacity="0.3" d="M436.546 400.423C432.529 414.923 422.059 427.839 410.767 428.631C399.506 429.422 376.099 417.835 361.644 406.059C357.342 402.545 352.218 397.036 347.189 391.053C347.379 385.038 348.264 376.11 349.466 366.676C349.466 366.549 349.498 366.423 349.529 366.328C349.593 365.948 349.624 365.6 349.656 365.22C349.877 363.32 350.13 361.421 350.383 359.521C357.564 367.436 386.727 398.809 398.684 398.809C412.38 398.809 421.236 387.539 429.271 385.101C437.368 382.695 440.563 385.924 436.546 400.423Z" fill="url(#paint17_linear_10_11)"/>
<path d="M358.987 206.74C361.328 202.751 373.474 206.202 377.238 209.969C381.002 213.737 379.357 221.936 368.35 220.511C357.374 219.118 356.393 211.172 358.987 206.74Z" fill="#2C312C"/>
<path d="M421.489 199.459C419.497 202.466 415.954 203.638 413.55 202.055C412.475 201.358 411.842 200.187 411.621 198.889C411.336 197.275 411.747 195.407 412.823 193.729C414.815 190.721 418.358 189.55 420.73 191.133C420.952 191.291 421.141 191.449 421.331 191.608C423.197 193.381 423.324 196.705 421.489 199.459Z" fill="white"/>
<path d="M420.161 196.768C418.168 199.775 414.625 200.947 412.222 199.364C412 199.206 411.81 199.047 411.621 198.889C411.336 197.275 411.747 195.407 412.823 193.729C414.815 190.721 418.358 189.55 420.73 191.133C420.952 191.291 421.141 191.449 421.331 191.608C421.648 193.222 421.268 195.09 420.161 196.768Z" fill="#211812"/>
<path d="M413.677 293.578C391.124 305.671 359.019 301.113 359.019 301.113C359.019 301.113 260.52 380.669 217.502 390.989C204.249 394.187 183.215 393.459 163.256 387.665C156.36 385.671 149.591 383.043 143.328 379.782C137.129 376.553 131.435 372.659 126.596 368.101C123.148 364.872 119.858 361.674 116.727 358.54C54.4774 296.395 51.4408 256.443 66.7501 242.45C77.0934 232.985 96.1668 235.074 122.104 251.283C132.479 257.773 149.117 272.652 165.407 288.164C172.618 295.066 179.767 302.062 186.251 308.552C187.864 310.135 189.414 311.718 190.901 313.238C203.996 326.407 213.422 336.316 213.422 336.316L351.902 263.566C351.902 263.566 372.905 234.821 377.807 237.828C388.878 244.603 372.715 260.717 372.715 260.717C372.715 260.717 386.664 262.427 393.338 259.229C399.506 256.285 398.336 243.875 413.487 245.141C424.937 246.091 440.784 279.047 413.677 293.578Z" fill="#FABA94"/>
<path d="M393.718 184.548C391.725 187.556 388.182 188.727 385.778 187.144C384.608 186.384 383.944 185.086 383.786 183.63C383.627 182.11 384.039 180.369 385.051 178.818C387.044 175.81 390.586 174.639 392.958 176.222C393.306 176.444 393.623 176.729 393.876 177.045C395.426 178.913 395.426 181.984 393.718 184.548Z" fill="white"/>
<path d="M392.642 181.857C390.649 184.865 387.107 186.036 384.703 184.453C384.355 184.231 384.039 183.947 383.786 183.63C383.627 182.11 384.039 180.369 385.051 178.818C387.044 175.81 390.586 174.639 392.958 176.222C393.306 176.444 393.623 176.729 393.876 177.045C394.066 178.596 393.654 180.306 392.642 181.857Z" fill="#211812"/>
<path d="M496.929 319.031C494.62 327.452 480.006 333.53 480.006 333.53C480.006 333.53 480.006 333.562 480.038 333.657C476.084 334.543 469.094 339.893 461.882 337.139C444.959 330.681 444.58 308.932 442.555 296.047C440.531 283.162 448.186 249.7 448.186 235.201C448.186 226.241 456.599 218.01 465.171 218.802C469.6 219.213 481.746 227.223 482.41 240.044C483.201 255.367 480.797 284.365 484.814 290.824C488.895 297.282 501.768 301.302 496.929 319.031Z" fill="url(#paint18_linear_10_11)"/>
<path d="M454.544 468.393C452.456 473.015 449.103 486.121 445.908 499.544C437.526 500.272 429.207 500.019 420.983 499.006L418.579 405.552C418.579 405.552 424.494 385.133 435.217 374.939C445.972 364.745 464.729 351.29 465.804 365.283C466.88 379.213 459.351 457.661 454.544 468.393Z" fill="url(#paint19_linear_10_11)"/>
<path opacity="0.6" d="M156.076 373.293C156.613 378.991 161.263 383.138 163.256 387.665C156.36 385.671 149.591 383.043 143.328 379.782C137.129 376.553 131.435 372.659 126.596 368.101C123.148 364.872 119.858 361.674 116.727 358.54C121.313 336.189 105.182 335.081 129.727 313.143C141.494 302.6 154.684 294.179 165.407 288.196C172.618 295.097 179.767 302.094 186.251 308.584C187.865 310.167 189.414 311.75 190.901 313.269C186.441 318.746 153.925 350.752 156.076 373.293Z" fill="#F69B88"/>
<path d="M186.314 308.552C172.682 319.696 147.946 344.421 143.36 379.751C137.16 376.522 131.467 372.628 126.627 368.069C54.8885 300.448 50.7132 257.108 66.7817 242.419C77.1249 232.953 96.1983 235.042 122.167 251.251C137.129 260.654 165.217 287.5 186.314 308.552Z" fill="#9AD2AD"/>
<path d="M396.596 493.973C394.445 493.371 392.263 492.738 390.143 492.041C389.479 491.82 388.783 491.63 388.119 491.408C387.455 491.187 386.759 490.965 386.095 490.743C385.494 490.553 384.924 490.364 384.323 490.142C383.564 489.889 382.837 489.635 382.078 489.382C381.413 489.161 380.749 488.907 380.085 488.686C379.421 488.464 378.756 488.211 378.092 487.958C377.618 487.799 377.143 487.609 376.669 487.419C375.815 487.103 374.992 486.786 374.138 486.47C373.664 485.14 348.011 409.193 347.157 394.282C347.157 394.028 347.125 393.807 347.125 393.585C347.125 393.427 347.125 393.3 347.125 393.174C347.125 387.254 348.106 377.313 349.435 366.676C352.724 370.95 366.831 388.963 373.442 393.712C380.97 399.094 387.391 407.135 387.391 407.135C387.391 407.135 396.501 457.091 395.995 486.121C395.995 487.736 396.248 490.174 396.596 493.973Z" fill="url(#paint20_linear_10_11)"/>
<path d="M401.404 129.906C401.404 129.906 393.275 133.642 387.36 130.666C386.474 124.493 386.348 118.13 389.068 116.483C396.438 111.925 416.935 104.485 418.042 110.31C420.446 122.942 401.404 129.906 401.404 129.906Z" fill="#FABA94"/>
<path d="M428.511 111.102C428.511 111.102 447.427 113.508 449.451 120.757C451.475 128.007 457.106 152.194 447.838 158.62C438.57 165.078 424.083 172.708 422.47 157.006C420.857 141.303 419.244 122.34 420.857 116.705C422.47 111.102 428.511 111.102 428.511 111.102Z" fill="#FABA94"/>
<path d="M204.407 95.3677C204.692 99.6415 202.636 103.25 199.789 103.44C196.942 103.63 194.412 100.338 194.095 96.0641C193.811 91.7903 195.867 88.1813 198.714 87.9913C201.56 87.8014 204.122 91.0938 204.407 95.3677Z" fill="#022D32"/>
<path d="M166.767 96.9504C167.052 101.224 164.996 104.833 162.149 105.023C159.302 105.213 156.772 101.921 156.455 97.6469C156.171 93.3731 158.227 89.7641 161.073 89.5741C163.952 89.3842 166.482 92.6766 166.767 96.9504Z" fill="#022D32"/>
<path d="M193.4 142.158C192.388 145.704 189.857 148.838 186.378 150.864C183.626 152.479 180.336 153.365 176.762 153.238C163.698 152.732 161.579 144.311 161.231 141.398C161.168 140.765 161.168 140.385 161.168 140.385C161.168 140.385 161.294 134.275 167.399 135.225C173.504 136.175 179.862 137.726 184.606 136.143C189.383 134.56 195.171 135.795 193.4 142.158Z" fill="#022D32" stroke="#012C32" stroke-width="8.7867" stroke-miterlimit="10"/>
<path d="M186.378 150.864C183.626 152.479 180.336 153.365 176.762 153.238C163.699 152.732 161.579 144.311 161.231 141.398C163.287 140.575 167.178 139.657 173.125 140.639C180.716 141.905 184.101 145.64 186.378 150.864Z" fill="#EF5C80"/>
<path d="M148.958 90.7773C148.958 90.7773 157.594 84.794 163.762 84.2875C169.93 83.7809 170.626 88.308 170.626 88.308" stroke="#012C32" stroke-width="2.7941" stroke-miterlimit="10" stroke-linecap="round" stroke-linejoin="round"/>
<path d="M186.409 87.9597C186.409 87.9597 198.239 81.0583 202.288 81.6914C206.337 82.3246 207.855 86.8517 207.855 86.8517" stroke="#012C32" stroke-width="2.7941" stroke-miterlimit="10" stroke-linecap="round" stroke-linejoin="round"/>
<path d="M182.519 103.852C182.519 103.852 186.725 118.13 187.738 121.169C189.762 127.215 176.477 126.804 176.477 126.804" stroke="#DC4926" stroke-width="2.7941" stroke-miterlimit="10" stroke-linecap="round" stroke-linejoin="round"/>
<path opacity="0.3" d="M452.266 346.447C448.407 345.307 443.409 348.061 438.19 355.722C432.971 363.384 410.419 370.222 423.292 371.425C436.166 372.628 448.249 363.352 451.887 359.331C455.461 355.311 455.334 347.365 452.266 346.447Z" fill="url(#paint21_linear_10_11)"/>
<path opacity="0.3" d="M501.515 475.041C496.866 471.116 492.248 463.296 488.357 458.706C479.247 447.974 477.634 421.634 482.442 412.517C486.396 405.014 487.123 381.65 487.25 373.483C487.281 373.704 487.281 373.862 487.281 373.862C487.281 373.862 487.471 374.052 487.788 374.464C490.476 377.725 503.287 394.472 504.995 421.159C506.545 444.871 504.489 462.505 501.515 475.041Z" fill="url(#paint22_linear_10_11)"/>
<path d="M308.125 102.237C321.244 102.237 331.879 91.593 331.879 78.4624C331.879 65.3317 321.244 54.6873 308.125 54.6873C295.005 54.6873 284.37 65.3317 284.37 78.4624C284.37 91.593 295.005 102.237 308.125 102.237Z" fill="url(#paint23_linear_10_11)"/>
<path d="M267.448 97.0138C267.448 102.142 263.304 106.29 258.18 106.29C253.056 106.29 248.912 102.142 248.912 97.0138C248.912 91.8852 253.056 87.738 258.18 87.738C263.304 87.738 267.448 91.8852 267.448 97.0138Z" fill="url(#paint24_linear_10_11)"/>
<defs>
<linearGradient id="paint0_linear_10_11" x1="131.122" y1="556.598" x2="410.055" y2="140.972" gradientUnits="userSpaceOnUse">
<stop stop-color="#6EA8DA"/>
<stop offset="1" stop-color="#A7DBF6"/>
</linearGradient>
<linearGradient id="paint1_linear_10_11" x1="128.283" y1="554.693" x2="407.216" y2="139.068" gradientUnits="userSpaceOnUse">
<stop stop-color="#6EA8DA"/>
<stop offset="1" stop-color="#A7DBF6"/>
</linearGradient>
<linearGradient id="paint2_linear_10_11" x1="377.135" y1="145.014" x2="435.206" y2="410.942" gradientUnits="userSpaceOnUse">
<stop offset="0.00537634" stop-color="#9A8479"/>
<stop offset="1" stop-color="#1D120A"/>
</linearGradient>
<linearGradient id="paint3_linear_10_11" x1="461.48" y1="203.466" x2="441.585" y2="373.777" gradientUnits="userSpaceOnUse">
<stop offset="0.00537634" stop-color="#9A8479"/>
<stop offset="1" stop-color="#1D120A"/>
</linearGradient>
<linearGradient id="paint4_linear_10_11" x1="367.354" y1="199.033" x2="421.449" y2="280.485" gradientUnits="userSpaceOnUse">
<stop stop-color="#FCC16E"/>
<stop offset="1" stop-color="#8F2E1D"/>
</linearGradient>
<linearGradient id="paint5_linear_10_11" x1="385.266" y1="264.721" x2="389.004" y2="247.819" gradientUnits="userSpaceOnUse">
<stop stop-color="#FCC16E"/>
<stop offset="1" stop-color="#8F2E1D"/>
</linearGradient>
<linearGradient id="paint6_linear_10_11" x1="365.853" y1="243.908" x2="369.751" y2="224.971" gradientUnits="userSpaceOnUse">
<stop stop-color="#FCC16E"/>
<stop offset="1" stop-color="#8F2E1D"/>
</linearGradient>
<linearGradient id="paint7_linear_10_11" x1="196.178" y1="418.233" x2="189.391" y2="226.316" gradientUnits="userSpaceOnUse">
<stop stop-color="#007B79"/>
<stop offset="1" stop-color="#56BD8B"/>
</linearGradient>
<linearGradient id="paint8_linear_10_11" x1="102.791" y1="192.654" x2="171.122" y2="192.654" gradientUnits="userSpaceOnUse">
<stop stop-color="#007B79"/>
<stop offset="1" stop-color="#56BD8B"/>
</linearGradient>
<linearGradient id="paint9_linear_10_11" x1="205.153" y1="187.668" x2="240.886" y2="187.668" gradientUnits="userSpaceOnUse">
<stop stop-color="#007B79"/>
<stop offset="1" stop-color="#56BD8B"/>
</linearGradient>
<linearGradient id="paint10_linear_10_11" x1="215.311" y1="320.62" x2="303.044" y2="465.741" gradientUnits="userSpaceOnUse">
<stop stop-color="#007B79"/>
<stop offset="1" stop-color="#56BD8B"/>
</linearGradient>
<linearGradient id="paint11_linear_10_11" x1="409.031" y1="345.543" x2="418.71" y2="501.35" gradientUnits="userSpaceOnUse">
<stop offset="0.00537634" stop-color="#9A8479"/>
<stop offset="1" stop-color="#1D120A"/>
</linearGradient>
<linearGradient id="paint12_linear_10_11" x1="395.771" y1="283.034" x2="382.461" y2="396.977" gradientUnits="userSpaceOnUse">
<stop offset="0.00537634" stop-color="#9A8479"/>
<stop offset="1" stop-color="#1D120A"/>
</linearGradient>
<linearGradient id="paint13_linear_10_11" x1="388.502" y1="305.999" x2="396.164" y2="271.348" gradientUnits="userSpaceOnUse">
<stop offset="0.00537634" stop-color="#9A8479"/>
<stop offset="1" stop-color="#1D120A"/>
</linearGradient>
<linearGradient id="paint14_linear_10_11" x1="419.99" y1="509.569" x2="433.01" y2="395.61" gradientUnits="userSpaceOnUse">
<stop offset="0.00537634" stop-color="#9A8479"/>
<stop offset="1" stop-color="#1D120A"/>
</linearGradient>
<linearGradient id="paint15_linear_10_11" x1="387.732" y1="503.554" x2="399.812" y2="397.822" gradientUnits="userSpaceOnUse">
<stop offset="0.00537634" stop-color="#9A8479"/>
<stop offset="1" stop-color="#1D120A"/>
</linearGradient>
<linearGradient id="paint16_linear_10_11" x1="76.6376" y1="81.0594" x2="78.6907" y2="81.0594" gradientUnits="userSpaceOnUse">
<stop stop-color="#007B79"/>
<stop offset="1" stop-color="#56BD8B"/>
</linearGradient>
<linearGradient id="paint17_linear_10_11" x1="396.822" y1="429.417" x2="391.176" y2="375.423" gradientUnits="userSpaceOnUse">
<stop offset="0.00537634" stop-color="#9A8479"/>
<stop offset="1" stop-color="#1D120A"/>
</linearGradient>
<linearGradient id="paint18_linear_10_11" x1="480.548" y1="190.425" x2="470.869" y2="291.968" gradientUnits="userSpaceOnUse">
<stop offset="0.00537634" stop-color="#9A8479"/>
<stop offset="1" stop-color="#1D120A"/>
</linearGradient>
<linearGradient id="paint19_linear_10_11" x1="428.573" y1="516.405" x2="448.737" y2="339.917" gradientUnits="userSpaceOnUse">
<stop offset="0.00537634" stop-color="#9A8479"/>
<stop offset="1" stop-color="#1D120A"/>
</linearGradient>
<linearGradient id="paint20_linear_10_11" x1="384.558" y1="522.102" x2="364.67" y2="380.62" gradientUnits="userSpaceOnUse">
<stop offset="0.00537634" stop-color="#9A8479"/>
<stop offset="1" stop-color="#1D120A"/>
</linearGradient>
<linearGradient id="paint21_linear_10_11" x1="419.345" y1="358.86" x2="454.57" y2="358.86" gradientUnits="userSpaceOnUse">
<stop offset="0.00537634" stop-color="#9A8479"/>
<stop offset="1" stop-color="#1D120A"/>
</linearGradient>
<linearGradient id="paint22_linear_10_11" x1="497.466" y1="474.52" x2="489.754" y2="400.763" gradientUnits="userSpaceOnUse">
<stop offset="0.00537634" stop-color="#9A8479"/>
<stop offset="1" stop-color="#1D120A"/>
</linearGradient>
<linearGradient id="paint23_linear_10_11" x1="32.2502" y1="490.244" x2="311.183" y2="74.6188" gradientUnits="userSpaceOnUse">
<stop stop-color="#6EA8DA"/>
<stop offset="1" stop-color="#A7DBF6"/>
</linearGradient>
<linearGradient id="paint24_linear_10_11" x1="6.37848" y1="472.881" x2="285.313" y2="57.2544" gradientUnits="userSpaceOnUse">
<stop stop-color="#6EA8DA"/>
<stop offset="1" stop-color="#A7DBF6"/>
</linearGradient>
</defs>
</svg>
